<svg width="211" height="26" viewBox="0 0 211 26" fill="none" xmlns="http://www.w3.org/2000/svg">
<path d="M17.7273 9C17.4773 8.23485 17.1477 7.54924 16.7386 6.94318C16.3371 6.32954 15.8561 5.80682 15.2955 5.375C14.7424 4.94318 14.1136 4.61364 13.4091 4.38636C12.7045 4.15909 11.9318 4.04545 11.0909 4.04545C9.71212 4.04545 8.45833 4.40151 7.32955 5.11364C6.20076 5.82576 5.30303 6.875 4.63636 8.26136C3.9697 9.64773 3.63636 11.3485 3.63636 13.3636C3.63636 15.3788 3.97349 17.0795 4.64773 18.4659C5.32197 19.8523 6.23485 20.9015 7.38636 21.6136C8.53788 22.3258 9.83333 22.6818 11.2727 22.6818C12.6061 22.6818 13.7803 22.3977 14.7955 21.8295C15.8182 21.2538 16.6136 20.4432 17.1818 19.3977C17.7576 18.3447 18.0455 17.1061 18.0455 15.6818L18.9091 15.8636H11.9091V13.3636H20.7727V15.8636C20.7727 17.7803 20.3636 19.447 19.5455 20.8636C18.7348 22.2803 17.6136 23.3788 16.1818 24.1591C14.7576 24.9318 13.1212 25.3182 11.2727 25.3182C9.21212 25.3182 7.40152 24.8333 5.84091 23.8636C4.28788 22.8939 3.07576 21.5152 2.20455 19.7273C1.34091 17.9394 0.909091 15.8182 0.909091 13.3636C0.909091 11.5227 1.1553 9.86742 1.64773 8.39773C2.14773 6.92045 2.85227 5.66288 3.76136 4.625C4.67045 3.58712 5.74621 2.79167 6.98864 2.23864C8.23106 1.68561 9.59848 1.40909 11.0909 1.40909C12.3182 1.40909 13.4621 1.5947 14.5227 1.96591C15.5909 2.32954 16.5417 2.84848 17.375 3.52273C18.2159 4.18939 18.9167 4.98864 19.4773 5.92045C20.0379 6.8447 20.4242 7.87121 20.6364 9H17.7273ZM25.2358 25V7.54545H27.8267V10.1818H28.0085C28.3267 9.31818 28.9025 8.61742 29.7358 8.07954C30.5691 7.54167 31.5085 7.27273 32.554 7.27273C32.7509 7.27273 32.9972 7.27651 33.2926 7.28409C33.5881 7.29167 33.8116 7.30303 33.9631 7.31818V10.0455C33.8722 10.0227 33.6638 9.98864 33.3381 9.94318C33.0199 9.89015 32.6828 9.86364 32.3267 9.86364C31.4782 9.86364 30.7206 10.0417 30.054 10.3977C29.3949 10.7462 28.8722 11.2311 28.4858 11.8523C28.107 12.4659 27.9176 13.1667 27.9176 13.9545V25H25.2358ZM42.2784 25.4091C41.1723 25.4091 40.1686 25.2008 39.267 24.7841C38.3655 24.3598 37.6496 23.75 37.1193 22.9545C36.589 22.1515 36.3239 21.1818 36.3239 20.0455C36.3239 19.0455 36.5208 18.2348 36.9148 17.6136C37.3087 16.9848 37.8352 16.4924 38.4943 16.1364C39.1534 15.7803 39.8807 15.5152 40.6761 15.3409C41.4792 15.1591 42.286 15.0152 43.0966 14.9091C44.1572 14.7727 45.017 14.6705 45.6761 14.6023C46.3428 14.5265 46.8277 14.4015 47.1307 14.2273C47.4413 14.053 47.5966 13.75 47.5966 13.3182V13.2273C47.5966 12.1061 47.2898 11.2348 46.6761 10.6136C46.0701 9.99242 45.1496 9.68182 43.9148 9.68182C42.6345 9.68182 41.6307 9.96212 40.9034 10.5227C40.1761 11.0833 39.6648 11.6818 39.3693 12.3182L36.8239 11.4091C37.2784 10.3485 37.8845 9.52273 38.642 8.93182C39.4072 8.33333 40.2405 7.91667 41.142 7.68182C42.0511 7.43939 42.9451 7.31818 43.8239 7.31818C44.3845 7.31818 45.0284 7.38636 45.7557 7.52273C46.4905 7.65151 47.1989 7.92045 47.8807 8.32954C48.5701 8.73864 49.142 9.35606 49.5966 10.1818C50.0511 11.0076 50.2784 12.1136 50.2784 13.5V25H47.5966V22.6364H47.4602C47.2784 23.0152 46.9754 23.4205 46.5511 23.8523C46.1269 24.2841 45.5625 24.6515 44.858 24.9545C44.1534 25.2576 43.2936 25.4091 42.2784 25.4091ZM42.6875 23C43.7481 23 44.642 22.7917 45.3693 22.375C46.1042 21.9583 46.6572 21.4205 47.0284 20.7614C47.4072 20.1023 47.5966 19.4091 47.5966 18.6818V16.2273C47.483 16.3636 47.233 16.4886 46.8466 16.6023C46.4678 16.7083 46.0284 16.803 45.5284 16.8864C45.036 16.9621 44.5549 17.0303 44.0852 17.0909C43.6231 17.1439 43.2481 17.1894 42.9602 17.2273C42.2633 17.3182 41.6117 17.4659 41.0057 17.6705C40.4072 17.8674 39.9223 18.1667 39.5511 18.5682C39.1875 18.9621 39.0057 19.5 39.0057 20.1818C39.0057 21.1136 39.3504 21.8182 40.0398 22.2955C40.7367 22.7652 41.6193 23 42.6875 23ZM46.3693 5.45454L44.0057 2.27273L41.642 5.45454H39.0966V5.27273L42.7784 0.545454H45.233L48.9148 5.27273V5.45454H46.3693ZM62.2642 25.3636C60.6278 25.3636 59.2188 24.9773 58.0369 24.2045C56.8551 23.4318 55.946 22.3674 55.3097 21.0114C54.6733 19.6553 54.3551 18.1061 54.3551 16.3636C54.3551 14.5909 54.6809 13.0265 55.3324 11.6705C55.9915 10.3068 56.9081 9.24242 58.0824 8.47727C59.2642 7.70455 60.643 7.31818 62.2188 7.31818C63.446 7.31818 64.5521 7.54545 65.5369 8C66.5218 8.45455 67.3286 9.09091 67.9574 9.90909C68.5862 10.7273 68.9763 11.6818 69.1278 12.7727H66.446C66.2415 11.9773 65.7869 11.2727 65.0824 10.6591C64.3854 10.0379 63.446 9.72727 62.2642 9.72727C61.2188 9.72727 60.3021 10 59.5142 10.5455C58.7339 11.0833 58.1241 11.8447 57.6847 12.8295C57.2528 13.8068 57.0369 14.9545 57.0369 16.2727C57.0369 17.6212 57.2491 18.7955 57.6733 19.7955C58.1051 20.7955 58.7112 21.572 59.4915 22.125C60.2794 22.678 61.2036 22.9545 62.2642 22.9545C62.9612 22.9545 63.5938 22.8333 64.1619 22.5909C64.7301 22.3485 65.2112 22 65.6051 21.5455C65.9991 21.0909 66.2794 20.5455 66.446 19.9091H69.1278C68.9763 20.9394 68.6013 21.8674 68.0028 22.6932C67.4119 23.5114 66.6278 24.1629 65.6506 24.6477C64.6809 25.125 63.5521 25.3636 62.2642 25.3636ZM80.3665 25.3636C78.6847 25.3636 77.2339 24.9924 76.0142 24.25C74.8021 23.5 73.8665 22.4545 73.2074 21.1136C72.5559 19.7652 72.2301 18.197 72.2301 16.4091C72.2301 14.6212 72.5559 13.0455 73.2074 11.6818C73.8665 10.3106 74.7831 9.24242 75.9574 8.47727C77.1392 7.70455 78.518 7.31818 80.0938 7.31818C81.0028 7.31818 81.9006 7.4697 82.7869 7.77273C83.6733 8.07576 84.4801 8.56818 85.2074 9.25C85.9347 9.92424 86.5142 10.8182 86.946 11.9318C87.3778 13.0455 87.5938 14.4167 87.5938 16.0455V17.1818H74.1392V14.8636H84.8665C84.8665 13.8788 84.6695 13 84.2756 12.2273C83.8892 11.4545 83.3362 10.8447 82.6165 10.3977C81.9044 9.95076 81.0634 9.72727 80.0938 9.72727C79.0256 9.72727 78.1013 9.99242 77.321 10.5227C76.5483 11.0455 75.9536 11.7273 75.5369 12.5682C75.1203 13.4091 74.9119 14.3106 74.9119 15.2727V16.8182C74.9119 18.1364 75.1392 19.2538 75.5938 20.1705C76.0559 21.0795 76.696 21.7727 77.5142 22.25C78.3324 22.7197 79.2831 22.9545 80.3665 22.9545C81.071 22.9545 81.7074 22.8561 82.2756 22.6591C82.8513 22.4545 83.3475 22.1515 83.7642 21.75C84.1809 21.3409 84.5028 20.8333 84.7301 20.2273L87.321 20.9545C87.0483 21.8333 86.59 22.6061 85.946 23.2727C85.3021 23.9318 84.5066 24.447 83.5597 24.8182C82.6127 25.1818 81.5483 25.3636 80.3665 25.3636ZM101.673 13.7727V16.2727H91.4915V13.7727H101.673ZM106.756 1.72727H110.119L118.028 21.0455H118.301L126.21 1.72727H129.574V25H126.938V7.31818H126.71L119.438 25H116.892L109.619 7.31818H109.392V25H106.756V1.72727ZM141.952 25.3636C140.376 25.3636 138.993 24.9886 137.804 24.2386C136.622 23.4886 135.698 22.4394 135.031 21.0909C134.372 19.7424 134.043 18.1667 134.043 16.3636C134.043 14.5455 134.372 12.9583 135.031 11.6023C135.698 10.2462 136.622 9.19318 137.804 8.44318C138.993 7.69318 140.376 7.31818 141.952 7.31818C143.527 7.31818 144.906 7.69318 146.088 8.44318C147.277 9.19318 148.202 10.2462 148.861 11.6023C149.527 12.9583 149.861 14.5455 149.861 16.3636C149.861 18.1667 149.527 19.7424 148.861 21.0909C148.202 22.4394 147.277 23.4886 146.088 24.2386C144.906 24.9886 143.527 25.3636 141.952 25.3636ZM141.952 22.9545C143.149 22.9545 144.134 22.6477 144.906 22.0341C145.679 21.4205 146.251 20.6136 146.622 19.6136C146.993 18.6136 147.179 17.5303 147.179 16.3636C147.179 15.197 146.993 14.1098 146.622 13.1023C146.251 12.0947 145.679 11.2803 144.906 10.6591C144.134 10.0379 143.149 9.72727 141.952 9.72727C140.755 9.72727 139.77 10.0379 138.997 10.6591C138.224 11.2803 137.652 12.0947 137.281 13.1023C136.91 14.1098 136.724 15.197 136.724 16.3636C136.724 17.5303 136.91 18.6136 137.281 19.6136C137.652 20.6136 138.224 21.4205 138.997 22.0341C139.77 22.6477 140.755 22.9545 141.952 22.9545ZM167.602 7.54545L161.148 25H158.42L151.966 7.54545H154.875L159.693 21.4545H159.875L164.693 7.54545H167.602ZM171.142 25V7.54545H173.824V25H171.142ZM172.506 4.63636C171.983 4.63636 171.532 4.45833 171.153 4.10227C170.782 3.74621 170.597 3.31818 170.597 2.81818C170.597 2.31818 170.782 1.89015 171.153 1.53409C171.532 1.17803 171.983 1 172.506 1C173.028 1 173.475 1.17803 173.847 1.53409C174.225 1.89015 174.415 2.31818 174.415 2.81818C174.415 3.31818 174.225 3.74621 173.847 4.10227C173.475 4.45833 173.028 4.63636 172.506 4.63636ZM186.054 25.3636C184.372 25.3636 182.921 24.9924 181.702 24.25C180.49 23.5 179.554 22.4545 178.895 21.1136C178.243 19.7652 177.918 18.197 177.918 16.4091C177.918 14.6212 178.243 13.0455 178.895 11.6818C179.554 10.3106 180.471 9.24242 181.645 8.47727C182.827 7.70455 184.205 7.31818 185.781 7.31818C186.69 7.31818 187.588 7.4697 188.474 7.77273C189.361 8.07576 190.168 8.56818 190.895 9.25C191.622 9.92424 192.202 10.8182 192.634 11.9318C193.065 13.0455 193.281 14.4167 193.281 16.0455V17.1818H179.827V14.8636H190.554C190.554 13.8788 190.357 13 189.963 12.2273C189.577 11.4545 189.024 10.8447 188.304 10.3977C187.592 9.95076 186.751 9.72727 185.781 9.72727C184.713 9.72727 183.789 9.99242 183.009 10.5227C182.236 11.0455 181.641 11.7273 181.224 12.5682C180.808 13.4091 180.599 14.3106 180.599 15.2727V16.8182C180.599 18.1364 180.827 19.2538 181.281 20.1705C181.743 21.0795 182.384 21.7727 183.202 22.25C184.02 22.7197 184.971 22.9545 186.054 22.9545C186.759 22.9545 187.395 22.8561 187.963 22.6591C188.539 22.4545 189.035 22.1515 189.452 21.75C189.868 21.3409 190.19 20.8333 190.418 20.2273L193.009 20.9545C192.736 21.8333 192.277 22.6061 191.634 23.2727C190.99 23.9318 190.194 24.447 189.247 24.8182C188.3 25.1818 187.236 25.3636 186.054 25.3636ZM209.724 11.4545L207.315 12.1364C207.164 11.7348 206.94 11.3447 206.645 10.9659C206.357 10.5795 205.963 10.2614 205.463 10.0114C204.963 9.76136 204.323 9.63636 203.543 9.63636C202.474 9.63636 201.584 9.88258 200.872 10.375C200.168 10.8598 199.815 11.4773 199.815 12.2273C199.815 12.8939 200.058 13.4205 200.543 13.8068C201.027 14.1932 201.785 14.5152 202.815 14.7727L205.406 15.4091C206.967 15.7879 208.13 16.3674 208.895 17.1477C209.66 17.9205 210.043 18.9167 210.043 20.1364C210.043 21.1364 209.755 22.0303 209.179 22.8182C208.611 23.6061 207.815 24.2273 206.793 24.6818C205.77 25.1364 204.58 25.3636 203.224 25.3636C201.444 25.3636 199.971 24.9773 198.804 24.2045C197.637 23.4318 196.899 22.303 196.588 20.8182L199.134 20.1818C199.376 21.1212 199.834 21.8258 200.509 22.2955C201.19 22.7652 202.08 23 203.179 23C204.429 23 205.421 22.7348 206.156 22.2045C206.899 21.6667 207.27 21.0227 207.27 20.2727C207.27 19.6667 207.058 19.1591 206.634 18.75C206.209 18.3333 205.558 18.0227 204.679 17.8182L201.77 17.1364C200.171 16.7576 198.997 16.1705 198.247 15.375C197.505 14.572 197.134 13.5682 197.134 12.3636C197.134 11.3788 197.41 10.5076 197.963 9.75C198.524 8.99242 199.285 8.39773 200.247 7.96591C201.217 7.53409 202.315 7.31818 203.543 7.31818C205.27 7.31818 206.626 7.69697 207.611 8.45454C208.603 9.21212 209.308 10.2121 209.724 11.4545Z" fill="white"/>
</svg>
