<svg width="50" height="50" viewBox="0 0 50 50" fill="none" xmlns="http://www.w3.org/2000/svg">
<path d="M25 1.05078C24.7825 1.05078 24.5658 1.11977 24.3808 1.25977L1.38085 19.2109C0.950847 19.5509 0.870925 20.1791 1.21093 20.6191C1.55093 21.0491 2.17913 21.1291 2.61913 20.7891L3.99999 19.7109V46C3.99999 46.55 4.44999 47 4.99999 47H19V29H31V47H45C45.55 47 46 46.55 46 46V19.7109L47.3808 20.7891C47.5708 20.9291 47.78 21 48 21C48.3 21 48.5891 20.8691 48.7891 20.6191C49.1291 20.1791 49.0491 19.5509 48.6191 19.2109L25.6191 1.25977C25.4341 1.11977 25.2175 1.05078 25 1.05078ZM35 5V6.05078L41 10.7305V5H35Z" fill="white"/>
</svg>
