<svg width="24" height="24" viewBox="0 0 24 24" fill="none" xmlns="http://www.w3.org/2000/svg">
<path d="M12 0C11.8913 0 11.7829 0.0360316 11.6904 0.109156L0.190634 9.48534C-0.0243625 9.66292 -0.0643228 9.99104 0.105674 10.2209C0.275671 10.4455 0.589767 10.4872 0.809764 10.3096L1.50018 9.74649V23.4777C1.50018 23.765 1.72518 24 2.00017 24H9.00005V14.5983H14.9999V24H21.9998C22.2748 24 22.4998 23.765 22.4998 23.4777V9.74649L23.1902 10.3096C23.2852 10.3827 23.3898 10.4198 23.4998 10.4198C23.6498 10.4198 23.7943 10.3514 23.8943 10.2209C24.0643 9.99104 24.0244 9.66292 23.8094 9.48534L12.3096 0.109156C12.2171 0.0360316 12.1087 0 12 0ZM16.9999 2.06274V2.61158L19.9999 5.05585V2.06274H16.9999Z" fill="white"/>
</svg>
